FFmpeg version SVN-r25716, Copyright (c) 2000-2010 the FFmpeg developers  built on Nov 10 2010 12:23:18 with gcc 4.1.2 20080704 (Red Hat 4.1.2-48)  configuration: --enable-libmp3lame --enable-shared --disable-mmx --arch=x86_64  libavutil     50.33. 0 / 50.33. 0  libavcore      0.12. 1 /  0.12. 1  libavcodec    52.94. 4 / 52.94. 4  libavformat   52.84. 0 / 52.84. 0  libavdevice   52. 2. 2 / 52. 2. 2  libavfilter    1.59. 0 /  1.59. 0  libswscale     0.12. 0 /  0.12. 0Input #0, avi, from '/RAID10/data/converted_video_files/47537.avi':  Duration: 00:00:05.06, start: 0.000000, bitrate: 282877 kb/s    Stream #0.0: Video: msvideo1, rgb555le, 1024x1024, 30 tbr, 30 tbn, 30 tbc[buffer @ 0x4396490] w:1024 h:1024 pixfmt:rgb555le[ffsink @ 0x4395920] auto-inserting filter 'auto-inserted scaler 0' between the filter 'src' and the filter 'out'[scale @ 0x4394820] w:1024 h:1024 fmt:rgb555le -> w:1024 h:1024 fmt:yuv420p flags:0x4Output #0, flv, to '/RAID10/data/converted_video_files/47537.flv':  Metadata:    encoder         : Lavf52.84.0    Stream #0.0: Video: flv, yuv420p, 1024x1024, q=2-31, 600 kb/s, 1k tbn, 24 tbcStream mapping:  Stream #0.0 -> #0.0Press [q] to stop encodingframe=    8 fps=  0 q=8.8 size=     981kB time=0.33 bitrate=24141.6kbits/s dup=0 drop=1    frame=   12 fps= 10 q=17.5 size=    1065kB time=0.50 bitrate=17451.8kbits/s dup=0 drop=3    frame=   21 fps= 12 q=24.8 size=    1111kB time=0.88 bitrate=10397.6kbits/s dup=0 drop=5    frame=   29 fps= 13 q=31.0 size=    1141kB time=1.21 bitrate=7734.3kbits/s dup=0 drop=7    frame=   37 fps= 13 q=31.0 size=    1180kB time=1.54 bitrate=6269.6kbits/s dup=0 drop=9    frame=   44 fps= 13 q=31.0 size=    1189kB time=1.83 bitrate=5314.2kbits/s dup=0 drop=10    frame=   52 fps= 13 q=31.0 size=    1229kB time=2.17 bitrate=4645.8kbits/s dup=0 drop=12    frame=   60 fps= 14 q=31.0 size=    1264kB time=2.50 bitrate=4142.5kbits/s dup=0 drop=15    frame=   68 fps= 14 q=31.0 size=    1272kB time=2.83 bitrate=3679.3kbits/s dup=0 drop=16    frame=   76 fps= 14 q=31.0 size=    1308kB time=3.17 bitrate=3383.2kbits/s dup=0 drop=18    frame=   82 fps= 14 q=31.0 size=    1343kB time=3.42 bitrate=3218.7kbits/s dup=0 drop=20    frame=   91 fps= 14 q=31.0 size=    1354kB time=3.79 bitrate=2925.7kbits/s dup=0 drop=22    frame=   99 fps= 14 q=31.0 size=    1389kB time=4.12 bitrate=2758.1kbits/s dup=0 drop=25    frame=  109 fps= 14 q=31.0 size=    1427kB time=4.54 bitrate=2573.7kbits/s dup=0 drop=27    frame=  119 fps= 15 q=31.0 size=    1463kB time=4.96 bitrate=2416.9kbits/s dup=0 drop=29    frame=  122 fps= 14 q=31.0 Lsize=    1466kB time=5.08 bitrate=2363.3kbits/s dup=0 drop=30    video:1464kB audio:0kB global headers:0kB muxing overhead 0.144188%